<mxfile host="app.diagrams.net" modified="2024-06-04T06:00:15.165Z" agent="Mozilla/5.0 (Windows NT 10.0; Win64; x64) AppleWebKit/537.36 (KHTML, like Gecko) Chrome/125.0.0.0 Safari/537.36 Edg/125.0.0.0" version="24.4.13" etag="WX2uVbeqNHKBpCYo-9WT" type="device">
  <diagram id="-WfJT8p4-GwKpoTxJhnp" name="Page-1">
    <mxGraphModel dx="825" dy="519" grid="1" gridSize="10" guides="1" tooltips="1" connect="1" arrows="1" fold="1" page="1" pageScale="1" pageWidth="850" pageHeight="1100" math="0" shadow="0">
      <root>
        <mxCell id="0" />
        <mxCell id="1" parent="0" />
        <mxCell id="nWQz146ZtRN3AlAth08i-2" value="" style="strokeWidth=1;shadow=0;dashed=0;align=center;html=1;shape=mxgraph.mockup.forms.rrect;rSize=0;strokeColor=#999999;" vertex="1" parent="1">
          <mxGeometry x="180" y="160" width="498" height="30" as="geometry" />
        </mxCell>
        <mxCell id="nWQz146ZtRN3AlAth08i-3" value="File" style="strokeColor=inherit;fillColor=inherit;gradientColor=inherit;strokeWidth=1;shadow=0;dashed=0;align=center;html=1;shape=mxgraph.mockup.forms.rrect;rSize=0;fontSize=17;fontColor=#666666;whiteSpace=wrap;" vertex="1" parent="nWQz146ZtRN3AlAth08i-2">
          <mxGeometry width="83" height="30" as="geometry" />
        </mxCell>
        <mxCell id="nWQz146ZtRN3AlAth08i-4" value="Edit" style="strokeColor=inherit;fillColor=inherit;gradientColor=inherit;strokeWidth=1;shadow=0;dashed=0;align=center;html=1;shape=mxgraph.mockup.forms.rrect;rSize=0;fontSize=17;fontColor=#666666;whiteSpace=wrap;" vertex="1" parent="nWQz146ZtRN3AlAth08i-2">
          <mxGeometry x="83" width="83" height="30" as="geometry" />
        </mxCell>
        <mxCell id="nWQz146ZtRN3AlAth08i-5" value="Options" style="strokeColor=inherit;fillColor=inherit;gradientColor=inherit;strokeWidth=1;shadow=0;dashed=0;align=center;html=1;shape=mxgraph.mockup.forms.rrect;rSize=0;fontSize=17;fontColor=#666666;whiteSpace=wrap;" vertex="1" parent="nWQz146ZtRN3AlAth08i-2">
          <mxGeometry x="166" width="83" height="30" as="geometry" />
        </mxCell>
        <mxCell id="nWQz146ZtRN3AlAth08i-6" value="Tools" style="strokeColor=inherit;fillColor=inherit;gradientColor=inherit;strokeWidth=1;shadow=0;dashed=0;align=center;html=1;shape=mxgraph.mockup.forms.rrect;rSize=0;fontSize=17;fontColor=#666666;whiteSpace=wrap;" vertex="1" parent="nWQz146ZtRN3AlAth08i-2">
          <mxGeometry x="249" width="83" height="30" as="geometry" />
        </mxCell>
        <mxCell id="nWQz146ZtRN3AlAth08i-7" value="Window" style="strokeColor=inherit;fillColor=inherit;gradientColor=inherit;strokeWidth=1;shadow=0;dashed=0;align=center;html=1;shape=mxgraph.mockup.forms.rrect;rSize=0;fontSize=17;fontColor=#666666;whiteSpace=wrap;" vertex="1" parent="nWQz146ZtRN3AlAth08i-2">
          <mxGeometry x="332" width="83" height="30" as="geometry" />
        </mxCell>
        <mxCell id="nWQz146ZtRN3AlAth08i-8" value="Help" style="strokeColor=inherit;fillColor=inherit;gradientColor=inherit;strokeWidth=1;shadow=0;dashed=0;align=center;html=1;shape=mxgraph.mockup.forms.rrect;rSize=0;fontSize=17;fontColor=#666666;whiteSpace=wrap;" vertex="1" parent="nWQz146ZtRN3AlAth08i-2">
          <mxGeometry x="415" width="83" height="30" as="geometry" />
        </mxCell>
      </root>
    </mxGraphModel>
  </diagram>
</mxfile>
